<svg id="SvgjsSvg1006" width="826" height="489.10003662109375" xmlns="http://www.w3.org/2000/svg" version="1.1" xmlns:xlink="http://www.w3.org/1999/xlink" xmlns:svgjs="http://svgjs.com/svgjs"><defs id="SvgjsDefs1007"></defs><rect id="SvgjsRect1008" width="826" height="489.10003662109375" fill="#ffffff"></rect><g id="SvgjsG1009" transform="translate(167.5013885498047,85.00068664550781)"><path id="SvgjsPath1010" d="M 0 18Q 0 0 18 0L 597.5 0Q 615.5 0 615.5 18L 615.5 47Q 615.5 65 597.5 65L 18 65Q 0 65 0 47L 0 18Z" stroke="rgba(161,161,161,1)" stroke-width="2" fill-opacity="1" fill="#a1a1a1"></path><g id="SvgjsG1011"><text id="SvgjsText1012" font-family="微软雅黑" text-anchor="middle" font-size="15px" width="596px" fill="#323232" font-weight="400" align="middle" lineHeight="125%" anchor="middle" family="微软雅黑" size="15px" weight="400" font-style="" opacity="1" y="21.625" transform="rotate(0)"></text></g></g><g id="SvgjsG1013" transform="translate(216.0013885498047,94.50068664550781)"><path id="SvgjsPath1014" d="M 0 0L 121.58610534667969 0L 121.58610534667969 46L 0 46Z" stroke="rgba(204,102,0,1)" stroke-width="2" fill-opacity="1" fill="#cc6600"></path><g id="SvgjsG1015"><text id="SvgjsText1016" font-family="微软雅黑" text-anchor="middle" font-size="15px" width="102px" fill="#323232" font-weight="400" align="middle" lineHeight="125%" anchor="middle" family="微软雅黑" size="15px" weight="400" font-style="" opacity="1" y="12.125" transform="rotate(0)"><tspan id="SvgjsTspan1017" dy="18" x="61"><tspan id="SvgjsTspan1018" style="text-decoration:;">语音交互</tspan></tspan></text></g></g><g id="SvgjsG1019" transform="translate(352.0013885498047,94.50068664550781)"><path id="SvgjsPath1020" d="M 0 0L 123.58610534667969 0L 123.58610534667969 46L 0 46Z" stroke="rgba(204,102,0,1)" stroke-width="2" fill-opacity="1" fill="#cc6600"></path><g id="SvgjsG1021"><text id="SvgjsText1022" font-family="微软雅黑" text-anchor="middle" font-size="15px" width="104px" fill="#323232" font-weight="400" align="middle" lineHeight="125%" anchor="middle" family="微软雅黑" size="15px" weight="400" font-style="" opacity="1" y="12.125" transform="rotate(0)"><tspan id="SvgjsTspan1023" dy="18" x="62"><tspan id="SvgjsTspan1024" style="text-decoration:;">智能导航</tspan></tspan></text></g></g><g id="SvgjsG1025" transform="translate(492.0013885498047,94.50068664550781)"><path id="SvgjsPath1026" d="M 0 0L 118.58610534667969 0L 118.58610534667969 46L 0 46Z" stroke="rgba(204,102,0,1)" stroke-width="2" fill-opacity="1" fill="#cc6600"></path><g id="SvgjsG1027"><text id="SvgjsText1028" font-family="微软雅黑" text-anchor="middle" font-size="15px" width="99px" fill="#323232" font-weight="400" align="middle" lineHeight="125%" anchor="middle" family="微软雅黑" size="15px" weight="400" font-style="" opacity="1" y="12.125" transform="rotate(0)"><tspan id="SvgjsTspan1029" dy="18" x="59.5"><tspan id="SvgjsTspan1030" style="text-decoration:;">自动泊车</tspan></tspan></text></g></g><g id="SvgjsG1031"><path id="SvgjsPath1032" d="M35.00138854980469 164.11180686950684L418.0013885498047 164.11180686950684L418.0013885498047 164.11180686950684L801.0013885498047 164.11180686950684" stroke-dasharray="8,5" stroke="#cccc00" stroke-width="2" fill="none"></path></g><g id="SvgjsG1033" transform="translate(25.001388549804688,95.00068664550781)"><path id="SvgjsPath1034" d="M 0 0L 113 0L 113 45L 0 45Z" stroke="none" fill="none"></path><g id="SvgjsG1035"><text id="SvgjsText1036" font-family="微软雅黑" text-anchor="middle" font-size="18px" width="113px" fill="#323232" font-weight="700" align="middle" lineHeight="125%" anchor="middle" family="微软雅黑" size="18px" weight="700" font-style="" opacity="1" y="9.25" transform="rotate(0)"><tspan id="SvgjsTspan1037" dy="22" x="56.5"><tspan id="SvgjsTspan1038" style="text-decoration:;">应用层</tspan></tspan></text></g></g><g id="SvgjsG1039" transform="translate(167.5013885498047,185.0006866455078)"><path id="SvgjsPath1040" d="M 0 18Q 0 0 18 0L 597.5 0Q 615.5 0 615.5 18L 615.5 47Q 615.5 65 597.5 65L 18 65Q 0 65 0 47L 0 18Z" stroke="rgba(184,184,184,1)" stroke-width="2" fill-opacity="1" fill="#b8b8b8"></path><g id="SvgjsG1041"><text id="SvgjsText1042" font-family="微软雅黑" text-anchor="middle" font-size="15px" width="596px" fill="#323232" font-weight="400" align="middle" lineHeight="125%" anchor="middle" family="微软雅黑" size="15px" weight="400" font-style="" opacity="1" y="21.625" transform="rotate(0)"></text></g></g><g id="SvgjsG1043" transform="translate(216.0013885498047,194.5006866455078)"><path id="SvgjsPath1044" d="M 0 0L 153.5861053466797 0L 153.5861053466797 46L 0 46Z" stroke="rgba(255,128,0,1)" stroke-width="2" fill-opacity="1" fill="#ff8000"></path><g id="SvgjsG1045"><text id="SvgjsText1046" font-family="微软雅黑" text-anchor="middle" font-size="15px" width="134px" fill="#323232" font-weight="400" align="middle" lineHeight="125%" anchor="middle" family="微软雅黑" size="15px" weight="400" font-style="" opacity="1" y="12.125" transform="rotate(0)"><tspan id="SvgjsTspan1047" dy="18" x="77"><tspan id="SvgjsTspan1048" style="text-decoration:;">云端计算</tspan></tspan></text></g></g><g id="SvgjsG1049" transform="translate(602.0013885498047,194.5006866455078)"><path id="SvgjsPath1050" d="M 0 0L 152.5861053466797 0L 152.5861053466797 46L 0 46Z" stroke="rgba(255,128,0,1)" stroke-width="2" fill-opacity="1" fill="#ff8000"></path><g id="SvgjsG1051"><text id="SvgjsText1052" font-family="微软雅黑" text-anchor="middle" font-size="15px" width="133px" fill="#323232" font-weight="400" align="middle" lineHeight="125%" anchor="middle" family="微软雅黑" size="15px" weight="400" font-style="" opacity="1" y="12.125" transform="rotate(0)"><tspan id="SvgjsTspan1053" dy="18" x="76.5"><tspan id="SvgjsTspan1054" style="text-decoration:;">车载计算</tspan></tspan></text></g></g><g id="SvgjsG1055" transform="translate(402.0013885498047,194.5006866455078)"><path id="SvgjsPath1056" d="M 0 0L 158.5861053466797 0L 158.5861053466797 46L 0 46Z" stroke="rgba(255,128,0,1)" stroke-width="2" fill-opacity="1" fill="#ff8000"></path><g id="SvgjsG1057"><text id="SvgjsText1058" font-family="微软雅黑" text-anchor="middle" font-size="15px" width="139px" fill="#323232" font-weight="400" align="middle" lineHeight="125%" anchor="middle" family="微软雅黑" size="15px" weight="400" font-style="" opacity="1" y="12.125" transform="rotate(0)"><tspan id="SvgjsTspan1059" dy="18" x="79.5"><tspan id="SvgjsTspan1060" style="text-decoration:;">车载OS</tspan></tspan></text></g></g><g id="SvgjsG1061"><path id="SvgjsPath1062" d="M35.00138854980469 264.11180686950684L418.0013885498047 264.11180686950684L418.0013885498047 264.11180686950684L801.0013885498047 264.11180686950684" stroke-dasharray="8,5" stroke="#cccc00" stroke-width="2" fill="none"></path></g><g id="SvgjsG1063" transform="translate(25.001388549804688,195.0006866455078)"><path id="SvgjsPath1064" d="M 0 0L 128.5861053466797 0L 128.5861053466797 45L 0 45Z" stroke="none" fill="none"></path><g id="SvgjsG1065"><text id="SvgjsText1066" font-family="微软雅黑" text-anchor="middle" font-size="18px" width="129px" fill="#323232" font-weight="700" align="middle" lineHeight="125%" anchor="middle" family="微软雅黑" size="18px" weight="700" font-style="" opacity="1" y="9.25" transform="rotate(0)"><tspan id="SvgjsTspan1067" dy="22" x="64.5"><tspan id="SvgjsTspan1068" style="text-decoration:;">协同计算控制层</tspan></tspan></text></g></g><g id="SvgjsG1069" transform="translate(167.5013885498047,285.0006866455078)"><path id="SvgjsPath1070" d="M 0 18Q 0 0 18 0L 597.5 0Q 615.5 0 615.5 18L 615.5 47Q 615.5 65 597.5 65L 18 65Q 0 65 0 47L 0 18Z" stroke="rgba(207,207,207,1)" stroke-width="2" fill-opacity="1" fill="#cfcfcf"></path><g id="SvgjsG1071"><text id="SvgjsText1072" font-family="微软雅黑" text-anchor="middle" font-size="15px" width="596px" fill="#323232" font-weight="400" align="middle" lineHeight="125%" anchor="middle" family="微软雅黑" size="15px" weight="400" font-style="" opacity="1" y="21.625" transform="rotate(0)"></text></g></g><g id="SvgjsG1073" transform="translate(216.0013885498047,294.5006866455078)"><path id="SvgjsPath1074" d="M 0 0L 95.58610534667969 0L 95.58610534667969 46L 0 46Z" stroke="rgba(153,153,0,1)" stroke-width="2" fill-opacity="1" fill="#999900"></path><g id="SvgjsG1075"><text id="SvgjsText1076" font-family="微软雅黑" text-anchor="middle" font-size="15px" width="76px" fill="#323232" font-weight="400" align="middle" lineHeight="125%" anchor="middle" family="微软雅黑" size="15px" weight="400" font-style="" opacity="1" y="12.125" transform="rotate(0)"><tspan id="SvgjsTspan1077" dy="18" x="48"><tspan id="SvgjsTspan1078" style="text-decoration:;">T-Box</tspan></tspan></text></g></g><g id="SvgjsG1079" transform="translate(329.0013885498047,294.5006866455078)"><path id="SvgjsPath1080" d="M 0 0L 86.58610534667969 0L 86.58610534667969 46L 0 46Z" stroke="rgba(153,153,0,1)" stroke-width="2" fill-opacity="1" fill="#999900"></path><g id="SvgjsG1081"><text id="SvgjsText1082" font-family="微软雅黑" text-anchor="middle" font-size="15px" width="67px" fill="#323232" font-weight="400" align="middle" lineHeight="125%" anchor="middle" family="微软雅黑" size="15px" weight="400" font-style="" opacity="1" y="12.125" transform="rotate(0)"><tspan id="SvgjsTspan1083" dy="18" x="43.5"><tspan id="SvgjsTspan1084" style="text-decoration:;">OBD</tspan></tspan></text></g></g><g id="SvgjsG1085" transform="translate(432.0013885498047,294.5006866455078)"><path id="SvgjsPath1086" d="M 0 0L 130 0L 130 46L 0 46Z" stroke="rgba(153,153,0,1)" stroke-width="2" fill-opacity="1" fill="#999900"></path><g id="SvgjsG1087"><text id="SvgjsText1088" font-family="微软雅黑" text-anchor="middle" font-size="15px" width="110px" fill="#323232" font-weight="400" align="middle" lineHeight="125%" anchor="middle" family="微软雅黑" size="15px" weight="400" font-style="" opacity="1" y="12.125" transform="rotate(0)"><tspan id="SvgjsTspan1089" dy="18" x="65"><tspan id="SvgjsTspan1090" style="text-decoration:;">2G/3G/4G/5G</tspan></tspan></text></g></g><g id="SvgjsG1091"><path id="SvgjsPath1092" d="M35.00138854980469 364.11180686950684L418.0013885498047 364.11180686950684L418.0013885498047 364.11180686950684L801.0013885498047 364.11180686950684" stroke-dasharray="8,5" stroke="#cccc00" stroke-width="2" fill="none"></path></g><g id="SvgjsG1093" transform="translate(25.001388549804688,295.0006866455078)"><path id="SvgjsPath1094" d="M 0 0L 113 0L 113 45L 0 45Z" stroke="none" fill="none"></path><g id="SvgjsG1095"><text id="SvgjsText1096" font-family="微软雅黑" text-anchor="middle" font-size="18px" width="113px" fill="#323232" font-weight="700" align="middle" lineHeight="125%" anchor="middle" family="微软雅黑" size="18px" weight="700" font-style="" opacity="1" y="9.25" transform="rotate(0)"><tspan id="SvgjsTspan1097" dy="22" x="56.5"><tspan id="SvgjsTspan1098" style="text-decoration:;">接入与传控层</tspan></tspan></text></g></g><g id="SvgjsG1099" transform="translate(167.5013885498047,385.0006866455078)"><path id="SvgjsPath1100" d="M 0 18Q 0 0 18 0L 597.5 0Q 615.5 0 615.5 18L 615.5 47Q 615.5 65 597.5 65L 18 65Q 0 65 0 47L 0 18Z" stroke="rgba(229,229,229,1)" stroke-width="2" fill-opacity="1" fill="#e5e5e5"></path><g id="SvgjsG1101"><text id="SvgjsText1102" font-family="微软雅黑" text-anchor="middle" font-size="15px" width="596px" fill="#323232" font-weight="400" align="middle" lineHeight="125%" anchor="middle" family="微软雅黑" size="15px" weight="400" font-style="" opacity="1" y="21.625" transform="rotate(0)"></text></g></g><g id="SvgjsG1103" transform="translate(216.0013885498047,394.5006866455078)"><path id="SvgjsPath1104" d="M 0 0L 95.58610534667969 0L 95.58610534667969 47L 0 47Z" stroke="rgba(204,204,0,1)" stroke-width="2" fill-opacity="1" fill="#cccc00"></path><g id="SvgjsG1105"><text id="SvgjsText1106" font-family="微软雅黑" text-anchor="middle" font-size="15px" width="76px" fill="#323232" font-weight="400" align="middle" lineHeight="125%" anchor="middle" family="微软雅黑" size="15px" weight="400" font-style="" opacity="1" y="12.625" transform="rotate(0)"><tspan id="SvgjsTspan1107" dy="18" x="48"><tspan id="SvgjsTspan1108" style="text-decoration:;">传感器</tspan></tspan></text></g></g><g id="SvgjsG1109" transform="translate(332.0013885498047,395.0006866455078)"><path id="SvgjsPath1110" d="M 0 0L 92.58610534667969 0L 92.58610534667969 46L 0 46Z" stroke="rgba(204,204,0,1)" stroke-width="2" fill-opacity="1" fill="#cccc00"></path><g id="SvgjsG1111"><text id="SvgjsText1112" font-family="微软雅黑" text-anchor="middle" font-size="15px" width="73px" fill="#323232" font-weight="400" align="middle" lineHeight="125%" anchor="middle" family="微软雅黑" size="15px" weight="400" font-style="" opacity="1" y="12.125" transform="rotate(0)"><tspan id="SvgjsTspan1113" dy="18" x="46.5"><tspan id="SvgjsTspan1114" style="text-decoration:;">激光雷达</tspan></tspan></text></g></g><g id="SvgjsG1115" transform="translate(442.0013885498047,395.0006866455078)"><path id="SvgjsPath1116" d="M 0 0L 82.58610534667969 0L 82.58610534667969 46L 0 46Z" stroke="rgba(204,204,0,1)" stroke-width="2" fill-opacity="1" fill="#cccc00"></path><g id="SvgjsG1117"><text id="SvgjsText1118" font-family="微软雅黑" text-anchor="middle" font-size="15px" width="63px" fill="#323232" font-weight="400" align="middle" lineHeight="125%" anchor="middle" family="微软雅黑" size="15px" weight="400" font-style="" opacity="1" y="12.125" transform="rotate(0)"><tspan id="SvgjsTspan1119" dy="18" x="41.5"><tspan id="SvgjsTspan1120" style="text-decoration:;">摄像头</tspan></tspan></text></g></g><g id="SvgjsG1121"><path id="SvgjsPath1122" d="M35.00138854980469 464.11180686950684L418.0013885498047 464.11180686950684L418.0013885498047 464.11180686950684L801.0013885498047 464.11180686950684" stroke-dasharray="8,5" stroke="#cccc00" stroke-width="2" fill="none"></path></g><g id="SvgjsG1123" transform="translate(25.001388549804688,395.5006866455078)"><path id="SvgjsPath1124" d="M 0 0L 113 0L 113 45L 0 45Z" stroke="none" fill="none"></path><g id="SvgjsG1125"><text id="SvgjsText1126" font-family="微软雅黑" text-anchor="middle" font-size="18px" width="113px" fill="#323232" font-weight="700" align="middle" lineHeight="125%" anchor="middle" family="微软雅黑" size="18px" weight="700" font-style="" opacity="1" y="9.25" transform="rotate(0)"><tspan id="SvgjsTspan1127" dy="22" x="56.5"><tspan id="SvgjsTspan1128" style="text-decoration:;">感知执行层</tspan></tspan></text></g></g><g id="SvgjsG1129" transform="translate(552.0013885498047,395.0006866455078)"><path id="SvgjsPath1130" d="M 0 0L 82.58610534667969 0L 82.58610534667969 46L 0 46Z" stroke="rgba(204,204,0,1)" stroke-width="2" fill-opacity="1" fill="#cccc00"></path><g id="SvgjsG1131"><text id="SvgjsText1132" font-family="微软雅黑" text-anchor="middle" font-size="15px" width="63px" fill="#323232" font-weight="400" align="middle" lineHeight="125%" anchor="middle" family="微软雅黑" size="15px" weight="400" font-style="" opacity="1" y="12.125" transform="rotate(0)"><tspan id="SvgjsTspan1133" dy="18" x="41.5"><tspan id="SvgjsTspan1134" style="text-decoration:;">方向盘</tspan></tspan></text></g></g><g id="SvgjsG1135" transform="translate(661.0013885498047,395.0006866455078)"><path id="SvgjsPath1136" d="M 0 0L 82.58610534667969 0L 82.58610534667969 46L 0 46Z" stroke="rgba(204,204,0,1)" stroke-width="2" fill-opacity="1" fill="#cccc00"></path><g id="SvgjsG1137"><text id="SvgjsText1138" font-family="微软雅黑" text-anchor="middle" font-size="15px" width="63px" fill="#323232" font-weight="400" align="middle" lineHeight="125%" anchor="middle" family="微软雅黑" size="15px" weight="400" font-style="" opacity="1" y="12.125" transform="rotate(0)"><tspan id="SvgjsTspan1139" dy="18" x="41.5"><tspan id="SvgjsTspan1140" style="text-decoration:;">油门</tspan></tspan></text></g></g><g id="SvgjsG1141" transform="translate(582.0013885498047,294.5006866455078)"><path id="SvgjsPath1142" d="M 0 0L 86.58610534667969 0L 86.58610534667969 46L 0 46Z" stroke="rgba(153,153,0,1)" stroke-width="2" fill-opacity="1" fill="#999900"></path><g id="SvgjsG1143"><text id="SvgjsText1144" font-family="微软雅黑" text-anchor="middle" font-size="15px" width="67px" fill="#323232" font-weight="400" align="middle" lineHeight="125%" anchor="middle" family="微软雅黑" size="15px" weight="400" font-style="" opacity="1" y="12.125" transform="rotate(0)"><tspan id="SvgjsTspan1145" dy="18" x="43.5"><tspan id="SvgjsTspan1146" style="text-decoration:;">C-V2X</tspan></tspan></text></g></g><g id="SvgjsG1147" transform="translate(681.0013885498047,294.5006866455078)"><path id="SvgjsPath1148" d="M 0 0L 86.58610534667969 0L 86.58610534667969 46L 0 46Z" stroke="rgba(153,153,0,1)" stroke-width="2" fill-opacity="1" fill="#999900"></path><g id="SvgjsG1149"><text id="SvgjsText1150" font-family="微软雅黑" text-anchor="middle" font-size="15px" width="67px" fill="#323232" font-weight="400" align="middle" lineHeight="125%" anchor="middle" family="微软雅黑" size="15px" weight="400" font-style="" opacity="1" y="12.125" transform="rotate(0)"><tspan id="SvgjsTspan1151" dy="18" x="43.5"><tspan id="SvgjsTspan1152" style="text-decoration:;">通信模组</tspan></tspan></text></g></g><g id="SvgjsG1153" transform="translate(632.0013885498047,94.50068664550781)"><path id="SvgjsPath1154" d="M 0 0L 130 0L 130 46L 0 46Z" stroke="rgba(204,102,0,1)" stroke-width="2" fill-opacity="1" fill="#cc6600"></path><g id="SvgjsG1155"><text id="SvgjsText1156" font-family="微软雅黑" text-anchor="middle" font-size="15px" width="110px" fill="#323232" font-weight="400" align="middle" lineHeight="125%" anchor="middle" family="微软雅黑" size="15px" weight="400" font-style="" opacity="1" y="12.125" transform="rotate(0)"><tspan id="SvgjsTspan1157" dy="18" x="65"><tspan id="SvgjsTspan1158" style="text-decoration:;">自动充电</tspan></tspan></text></g></g><g id="SvgjsG1159" transform="translate(345.0013885498047,25.000686645507812)"><path id="SvgjsPath1160" d="M 0 0L 157.5861053466797 0L 157.5861053466797 44.81181335449219L 0 44.81181335449219Z" stroke="none" fill="none"></path><g id="SvgjsG1161"><text id="SvgjsText1162" font-family="微软雅黑" text-anchor="middle" font-size="18px" width="158px" fill="#323232" font-weight="700" align="middle" lineHeight="125%" anchor="middle" family="微软雅黑" size="18px" weight="700" font-style="" opacity="1" y="9.155906677246094" transform="rotate(0)"><tspan id="SvgjsTspan1163" dy="22" x="79"><tspan id="SvgjsTspan1164" style="text-decoration:;">车联网架构</tspan></tspan></text></g></g></svg>